<?xml version="1.0" encoding="UTF-8" ?>
<!DOCTYPE svg PUBLIC "-//W3C//DTD SVG 1.1//EN" "http://www.w3.org/Graphics/SVG/1.1/DTD/svg11.dtd">
<svg width="606pt" height="180pt" viewBox="0 0 606 180" version="1.1" xmlns="http://www.w3.org/2000/svg">
<g id="#e3e3e3ff">
<path fill="#e3e3e3" opacity="1.00" d=" M 78.50 1.41 C 78.84 1.41 79.51 1.42 79.85 1.43 C 80.54 2.29 81.24 3.14 81.96 3.97 C 83.01 4.97 84.04 5.98 85.09 6.98 C 87.18 9.00 89.21 11.09 91.37 13.04 L 91.33 13.68 L 92.08 13.57 C 92.72 14.40 93.36 15.23 94.00 16.06 C 94.39 16.24 95.18 16.60 95.58 16.78 L 95.46 17.03 C 102.35 22.97 108.44 29.77 115.09 35.97 C 115.32 36.23 115.77 36.76 116.00 37.03 C 116.81 37.68 117.64 38.32 118.47 38.95 L 118.29 39.13 C 118.67 39.53 119.42 40.34 119.80 40.74 L 120.50 40.43 L 120.41 41.67 L 121.01 41.54 C 121.41 41.89 122.22 42.57 122.63 42.91 L 122.44 43.51 L 123.12 43.42 C 123.50 43.78 124.28 44.50 124.67 44.86 L 124.38 45.55 L 125.71 45.41 L 125.40 46.09 C 125.79 46.45 126.56 47.18 126.94 47.54 L 127.61 47.33 L 127.51 48.00 C 134.83 54.29 141.21 61.60 148.35 68.10 L 148.37 68.65 L 148.87 68.79 C 150.18 69.90 151.53 70.96 152.83 72.07 C 154.26 73.41 155.63 74.80 156.92 76.27 C 155.08 77.19 153.01 77.00 151.02 77.02 C 145.85 76.98 140.68 77.00 135.52 77.00 C 134.12 75.55 132.62 74.21 131.15 72.83 C 130.17 71.85 129.17 70.90 128.19 69.94 C 123.96 66.12 120.06 61.95 115.95 58.01 C 114.95 57.03 113.95 56.05 112.93 55.08 C 111.94 54.05 110.93 53.02 109.95 51.97 C 109.14 51.33 108.34 50.68 107.52 50.05 L 107.78 49.74 C 107.37 49.40 106.55 48.71 106.14 48.37 L 105.37 48.65 L 105.66 47.93 C 103.59 46.50 101.81 44.72 100.10 42.89 C 95.28 38.38 90.67 33.64 85.95 29.03 C 83.78 26.85 81.70 24.53 79.09 22.85 C 76.93 24.40 74.90 26.13 73.01 28.00 C 72.78 28.27 72.30 28.79 72.06 29.05 C 65.42 35.23 59.35 42.03 52.49 47.96 L 52.58 48.67 L 51.89 48.27 C 51.49 48.68 50.71 49.48 50.31 49.89 L 50.67 50.67 L 49.33 50.25 L 49.57 51.51 L 48.99 51.56 C 47.54 52.90 45.82 53.88 44.20 54.99 C 43.04 56.13 41.88 57.26 40.67 58.34 C 40.68 58.67 40.72 59.34 40.74 59.67 L 39.92 59.27 C 39.53 59.67 38.73 60.48 38.33 60.88 L 38.76 61.76 L 37.20 61.24 L 37.71 62.09 C 37.33 62.38 36.58 62.97 36.21 63.26 L 35.86 63.86 L 35.54 64.54 L 34.31 64.27 L 34.80 65.77 L 33.28 65.29 L 33.71 66.76 L 31.99 66.52 L 33.05 68.87 L 30.25 66.63 L 32.31 69.97 L 29.26 67.63 L 30.66 69.91 C 30.12 69.70 29.05 69.29 28.51 69.08 L 28.69 70.69 L 27.30 70.31 L 27.62 71.73 C 27.12 71.69 26.13 71.60 25.63 71.56 C 25.63 72.01 25.63 72.93 25.63 73.39 L 25.28 73.62 C 24.74 74.49 24.15 75.33 23.52 76.14 C 16.02 76.25 8.52 76.09 1.03 76.20 C 2.44 74.72 3.87 73.25 5.47 71.98 L 5.27 71.23 L 5.93 71.53 C 6.78 70.64 7.68 69.80 8.61 68.99 L 8.25 68.36 L 9.59 68.65 L 9.47 67.40 L 10.70 67.79 L 10.59 66.96 C 11.39 66.30 12.18 65.64 12.97 64.97 C 16.23 61.88 19.32 58.62 22.54 55.50 C 24.91 53.17 27.83 51.43 29.80 48.70 C 30.59 47.83 31.36 46.93 32.08 46.00 C 32.53 45.82 33.41 45.45 33.85 45.27 L 33.13 44.17 L 34.70 44.72 L 34.30 43.27 L 36.03 43.45 L 34.86 41.10 L 37.77 43.38 L 35.71 40.08 L 38.99 42.51 L 37.22 40.00 C 37.78 40.25 38.90 40.73 39.47 40.98 L 39.25 39.29 L 40.09 39.71 C 40.49 39.31 41.27 38.52 41.67 38.12 L 41.19 37.18 L 42.13 37.66 C 42.53 37.26 43.33 36.48 43.73 36.08 L 43.32 35.25 C 43.70 35.28 44.44 35.35 44.81 35.38 C 47.96 30.42 52.52 26.67 56.58 22.50 C 59.24 19.98 61.66 17.18 64.67 15.05 L 64.19 14.38 L 65.57 14.60 L 65.50 13.95 C 65.85 13.55 66.56 12.73 66.91 12.32 L 67.20 12.70 C 68.12 11.78 69.04 10.86 69.96 9.94 C 70.21 9.70 70.70 9.23 70.95 8.99 C 73.53 6.53 76.09 4.04 78.50 1.41 Z" />
<path fill="#e3e3e3" opacity="1.00" d=" M 100.06 0.76 C 106.83 0.75 113.60 0.78 120.38 0.77 C 121.18 1.18 121.99 1.58 122.80 1.97 C 124.03 3.77 125.48 5.41 127.01 6.97 C 127.68 7.64 128.36 8.31 129.03 8.99 C 129.70 9.65 130.37 10.32 131.03 10.99 C 136.27 16.45 141.75 21.67 146.95 27.17 C 149.01 29.24 151.09 31.28 152.94 33.54 L 153.60 33.31 L 153.42 34.49 L 154.53 34.53 L 154.36 35.66 L 155.06 35.57 C 156.95 37.78 159.01 39.85 161.01 41.96 C 166.15 47.08 171.14 52.34 176.32 57.42 C 176.44 57.83 176.68 58.67 176.80 59.08 C 177.28 59.28 178.24 59.67 178.72 59.87 C 179.44 60.93 180.19 61.98 180.99 62.99 C 182.38 64.27 183.72 65.61 185.08 66.94 C 185.32 67.19 185.81 67.71 186.06 67.96 C 186.71 68.63 187.36 69.30 188.01 69.96 C 190.22 72.25 192.55 74.43 194.47 76.97 C 187.48 77.04 180.49 76.98 173.50 77.00 C 172.59 75.93 171.65 74.89 170.65 73.90 L 170.57 73.82 C 169.37 72.56 168.18 71.30 166.97 70.06 C 166.71 69.80 166.18 69.30 165.92 69.04 C 161.39 64.24 156.56 59.71 152.12 54.83 C 151.41 54.20 150.70 53.57 150.00 52.94 C 149.35 52.09 148.71 51.23 148.10 50.36 L 147.26 50.64 L 147.66 49.81 C 147.27 49.44 146.49 48.69 146.11 48.32 L 145.96 48.68 C 145.59 48.26 144.87 47.44 144.50 47.02 L 144.70 46.32 L 143.36 46.55 L 143.75 45.77 C 143.35 45.45 142.54 44.80 142.13 44.47 L 142.06 44.36 C 136.59 38.35 130.68 32.76 125.03 26.93 C 124.39 26.26 123.76 25.57 123.14 24.88 C 122.42 24.26 121.71 23.64 121.00 23.01 C 120.32 22.16 119.66 21.30 119.01 20.42 L 118.21 20.72 L 118.71 19.49 L 118.11 19.31 C 117.17 18.43 116.20 17.58 115.22 16.74 C 112.80 13.54 109.74 10.90 106.98 8.00 C 104.57 5.68 102.25 3.28 100.06 0.76 Z" />
<path fill="#e3e3e3" opacity="1.00" d=" M 28.70 21.44 C 33.11 20.81 37.81 20.30 42.12 21.67 C 42.10 26.02 42.23 30.39 41.57 34.71 L 40.20 34.26 L 40.67 35.13 C 40.27 35.54 39.48 36.35 39.09 36.76 L 38.20 36.18 L 38.77 37.72 L 37.23 37.19 L 37.72 38.05 C 37.31 38.46 36.51 39.28 36.11 39.69 L 35.25 39.19 L 35.84 40.76 L 34.96 40.29 C 34.55 40.70 33.73 41.52 33.32 41.93 L 33.83 42.82 L 32.26 42.35 L 32.63 43.86 L 30.09 43.35 L 31.97 44.47 C 31.18 44.75 29.59 45.32 28.80 45.60 C 28.68 37.55 28.84 29.49 28.70 21.44 Z" />
<path fill="#e3e3e3" opacity="1.00" d=" M 40.97 60.69 C 42.62 64.62 41.97 68.93 42.07 73.07 C 42.13 104.27 42.00 135.47 42.15 166.67 C 80.57 166.59 118.99 166.68 157.41 166.64 C 157.36 170.84 157.36 175.03 157.37 179.23 C 114.49 179.14 71.61 179.32 28.74 179.17 C 28.77 145.77 28.76 112.37 28.74 78.96 C 28.71 76.72 29.14 74.51 29.47 72.31 L 30.77 72.73 L 30.27 71.80 C 30.65 71.39 31.40 70.56 31.78 70.14 L 32.76 70.82 L 32.20 69.31 L 33.73 69.84 L 33.21 68.90 C 33.63 68.49 34.46 67.67 34.87 67.26 L 35.77 67.70 L 35.47 66.37 L 36.10 66.05 L 36.71 65.70 L 37.17 65.15 L 37.61 64.58 C 38.11 64.60 39.11 64.63 39.61 64.65 L 39.21 63.34 L 40.44 63.71 C 40.57 62.96 40.83 61.45 40.97 60.69 Z" />
<path fill="#e3e3e3" opacity="1.00" d=" M 432.24 84.23 C 436.20 81.93 442.08 85.39 441.16 90.13 C 440.86 94.88 434.43 97.22 431.05 93.96 C 427.90 91.41 428.60 85.95 432.24 84.23 Z" />
<path fill="#e3e3e3" opacity="1.00" d=" M 252.55 91.70 C 263.18 86.19 276.44 87.58 286.83 93.00 C 285.30 96.90 283.71 100.78 282.19 104.68 C 276.38 101.57 269.59 99.38 263.00 100.97 C 261.04 101.35 259.14 102.82 258.99 104.93 C 258.54 107.58 261.47 108.90 263.52 109.60 C 271.04 111.94 279.91 112.28 285.67 118.32 C 292.22 125.90 288.58 138.78 279.63 142.75 C 268.05 148.05 253.94 146.06 243.11 139.82 C 244.71 135.89 246.43 132.02 248.06 128.12 C 254.18 132.07 261.62 134.19 268.91 133.36 C 271.28 133.10 274.25 131.88 274.32 129.09 C 274.13 125.90 270.53 125.01 268.03 124.21 C 260.68 122.13 251.98 121.46 246.81 115.13 C 241.23 107.68 244.36 95.90 252.55 91.70 Z" />
<path fill="#e3e3e3" opacity="1.00" d=" M 127.25 89.25 C 132.25 89.25 137.25 89.25 142.25 89.25 C 142.26 96.91 142.22 104.58 142.27 112.24 C 148.59 105.21 154.88 98.15 161.14 91.06 C 161.93 90.32 162.63 89.04 163.92 89.27 C 169.06 89.19 174.19 89.28 179.33 89.26 C 172.11 97.47 164.82 105.62 157.64 113.85 C 165.26 124.16 172.86 134.48 180.52 144.76 C 174.69 144.74 168.86 144.75 163.02 144.75 C 157.98 138.02 152.88 131.33 147.83 124.61 C 145.94 126.68 144.05 128.76 142.24 130.91 C 142.26 135.52 142.24 140.13 142.25 144.75 C 137.25 144.75 132.25 144.75 127.25 144.75 C 127.25 126.25 127.25 107.75 127.25 89.25 Z" />
<path fill="#e3e3e3" opacity="1.00" d=" M 202.13 89.10 C 212.00 86.94 223.24 89.19 230.47 96.56 C 241.14 106.84 241.49 125.66 231.42 136.46 C 220.17 148.97 197.92 148.78 186.91 136.02 C 178.36 126.30 177.75 110.74 185.16 100.20 C 189.15 94.53 195.35 90.52 202.13 89.10 M 205.55 101.78 C 193.71 104.75 191.47 122.33 200.43 129.63 C 205.86 134.12 214.66 133.68 219.52 128.53 C 224.62 123.02 225.09 114.05 221.26 107.72 C 218.11 102.52 211.33 100.08 205.55 101.78 Z" />
<path fill="#e3e3e3" opacity="1.00" d=" M 290.25 89.25 C 306.08 89.25 321.92 89.25 337.75 89.25 C 337.75 93.42 337.75 97.58 337.75 101.75 C 332.33 101.75 326.91 101.75 321.50 101.75 C 321.50 116.08 321.49 130.41 321.50 144.75 C 316.50 144.75 311.50 144.75 306.50 144.75 C 306.50 130.42 306.50 116.08 306.50 101.75 C 301.08 101.75 295.67 101.75 290.25 101.75 C 290.25 97.58 290.25 93.42 290.25 89.25 Z" />
<path fill="#e3e3e3" opacity="1.00" d=" M 340.00 89.28 C 343.41 89.24 346.81 89.25 350.23 89.25 C 354.71 103.31 359.03 117.41 363.50 131.47 C 367.98 117.37 372.66 103.33 377.21 89.25 C 380.24 89.25 383.27 89.25 386.31 89.26 C 390.78 103.39 395.25 117.52 399.74 131.65 C 404.31 117.52 408.76 103.37 413.36 89.26 C 416.49 89.25 419.61 89.24 422.75 89.27 C 416.86 107.76 410.97 126.24 405.15 144.75 C 401.65 144.75 398.16 144.74 394.67 144.76 C 390.28 131.10 385.92 117.42 381.56 103.75 C 376.97 117.38 372.69 131.11 368.13 144.75 C 364.61 144.75 361.10 144.75 357.59 144.74 C 351.78 126.24 345.89 107.76 340.00 89.28 Z" />
<path fill="#e3e3e3" opacity="1.00" d=" M 65.81 94.77 C 70.30 94.84 74.79 94.88 79.28 94.78 C 80.38 99.59 80.37 104.67 79.47 109.52 C 75.53 110.25 71.47 110.18 67.48 109.94 C 65.42 109.71 65.37 107.58 65.02 106.00 C 65.05 103.13 65.95 100.27 65.23 97.41 C 65.42 96.53 65.62 95.65 65.81 94.77 Z" />
<path fill="#e3e3e3" opacity="1.00" d=" M 83.92 96.14 C 84.31 95.81 85.08 95.14 85.47 94.81 C 89.58 94.93 93.69 94.69 97.79 94.90 C 98.10 95.23 98.71 95.89 99.02 96.22 C 99.20 100.38 99.17 104.56 99.04 108.71 C 98.72 109.02 98.07 109.64 97.75 109.95 C 93.59 110.16 89.41 110.15 85.25 109.95 C 84.95 109.65 84.34 109.04 84.04 108.73 C 83.75 104.54 84.00 100.34 83.92 96.14 Z" />
<path fill="#e3e3e3" opacity="1.00" d=" M 454.79 104.83 C 463.08 100.32 473.41 101.62 481.71 105.47 C 480.59 108.05 479.36 110.58 478.09 113.10 C 472.96 110.23 466.61 108.91 460.94 110.89 C 458.16 111.70 456.77 115.82 459.38 117.62 C 465.25 120.91 472.70 119.62 478.43 123.36 C 484.04 126.72 484.44 135.46 479.99 139.93 C 477.88 142.31 474.85 143.65 471.82 144.40 C 463.63 146.28 454.76 144.84 447.49 140.66 C 448.67 138.12 449.94 135.63 451.16 133.11 C 457.07 136.57 464.53 138.57 471.20 136.28 C 473.91 135.38 474.87 131.23 472.08 129.81 C 465.63 126.71 457.31 128.27 451.72 123.13 C 446.58 117.90 448.40 108.25 454.79 104.83 Z" />
<path fill="#e3e3e3" opacity="1.00" d=" M 500.19 107.80 C 506.95 99.84 521.34 99.84 527.13 108.92 C 533.09 101.43 545.12 99.61 552.93 105.19 C 557.32 108.67 558.91 114.54 558.99 119.93 C 559.03 128.20 558.98 136.48 559.00 144.75 C 555.83 144.75 552.66 144.75 549.50 144.75 C 549.49 136.82 549.52 128.89 549.50 120.96 C 549.47 117.50 548.35 113.63 545.16 111.81 C 540.99 109.65 535.15 110.51 532.26 114.39 C 530.14 117.06 529.73 120.62 529.73 123.92 C 529.75 130.86 529.75 137.81 529.75 144.75 C 526.58 144.75 523.41 144.75 520.25 144.75 C 520.23 136.85 520.27 128.96 520.25 121.07 C 520.31 117.20 518.73 112.73 514.84 111.24 C 511.26 110.14 506.91 110.55 504.13 113.27 C 501.65 115.81 500.76 119.49 500.74 122.96 C 500.74 130.22 500.76 137.48 500.75 144.75 C 497.58 144.75 494.41 144.75 491.25 144.75 C 491.25 130.67 491.25 116.58 491.25 102.50 C 494.25 102.50 497.26 102.50 500.27 102.50 C 500.24 104.27 500.23 106.03 500.19 107.80 Z" />
<path fill="#e3e3e3" opacity="1.00" d=" M 569.69 107.13 C 575.56 102.94 583.02 101.41 590.13 102.18 C 594.14 102.62 598.30 104.03 601.05 107.14 C 604.29 110.53 605.18 115.45 605.25 119.99 C 605.25 128.24 605.24 136.49 605.25 144.75 C 602.24 144.75 599.24 144.75 596.23 144.74 C 596.24 143.12 596.25 141.51 596.28 139.89 C 590.99 146.22 581.01 146.75 574.15 142.85 C 566.99 138.84 566.44 126.95 573.60 122.69 C 580.37 118.67 588.53 120.47 595.99 119.89 C 595.67 116.69 594.80 112.91 591.54 111.49 C 585.57 108.71 578.42 110.71 573.25 114.32 C 572.09 111.90 570.89 109.51 569.69 107.13 M 581.24 127.15 C 577.02 128.30 576.50 134.66 580.23 136.73 C 584.43 139.08 590.35 138.28 593.68 134.74 C 596.14 132.68 595.80 129.38 595.81 126.51 C 590.96 126.75 585.97 125.85 581.24 127.15 Z" />
<path fill="#e3e3e3" opacity="1.00" d=" M 430.25 144.75 C 430.25 130.67 430.25 116.58 430.25 102.50 C 433.41 102.50 436.58 102.50 439.75 102.50 C 439.75 116.58 439.75 130.67 439.75 144.75 C 436.58 144.75 433.41 144.75 430.25 144.75 Z" />
<path fill="#e3e3e3" opacity="1.00" d=" M 65.44 128.42 C 65.11 123.60 65.73 118.74 65.59 113.90 C 70.14 113.86 74.69 113.90 79.25 113.82 C 80.88 117.85 79.08 122.12 79.99 126.21 C 79.82 126.77 79.48 127.89 79.30 128.45 C 74.68 128.37 70.06 128.47 65.44 128.42 Z" />
<path fill="#e3e3e3" opacity="1.00" d=" M 85.23 113.99 C 89.85 114.06 94.73 113.16 99.18 114.72 C 99.04 119.25 99.06 123.78 99.17 128.31 C 94.30 128.49 89.41 128.41 84.54 128.38 C 83.58 124.07 83.86 119.61 84.03 115.24 C 84.33 114.93 84.93 114.30 85.23 113.99 Z" />
<path fill="#e3e3e3" opacity="1.00" d=" M 596.65 161.50 C 597.68 161.50 598.71 161.50 599.75 161.50 C 599.75 167.16 599.75 172.83 599.75 178.50 C 598.58 178.50 597.41 178.50 596.25 178.50 C 596.25 175.10 596.25 171.71 596.25 168.32 C 594.62 171.16 593.00 174.01 591.36 176.84 C 590.95 176.80 590.14 176.71 589.74 176.66 C 588.17 173.95 586.58 171.25 585.00 168.55 C 585.00 171.86 585.00 175.18 585.00 178.50 C 584.13 178.50 582.38 178.50 581.50 178.50 C 581.50 172.83 581.50 167.17 581.50 161.51 C 582.27 161.50 583.80 161.50 584.57 161.49 C 586.58 165.01 588.63 168.51 590.63 172.03 C 592.67 168.54 594.67 165.03 596.65 161.50 Z" />
<path fill="#e3e3e3" opacity="1.00" d=" M 420.00 161.50 C 420.77 161.50 422.30 161.50 423.07 161.50 C 425.09 165.03 427.11 168.56 429.19 172.06 C 431.15 168.50 433.20 165.00 435.21 161.47 C 435.97 161.48 437.49 161.51 438.25 161.52 C 438.25 167.18 438.25 172.84 438.25 178.50 C 437.08 178.50 435.91 178.50 434.75 178.50 C 434.75 175.11 434.76 171.72 434.73 168.34 C 433.05 171.16 431.64 174.16 429.69 176.80 C 429.38 176.80 428.78 176.79 428.47 176.79 C 426.59 174.18 425.17 171.29 423.52 168.54 C 423.49 171.86 423.49 175.18 423.50 178.50 C 422.62 178.50 420.87 178.50 420.00 178.50 C 420.00 172.83 420.00 167.17 420.00 161.50 Z" />
<path fill="#e3e3e3" opacity="1.00" d=" M 456.51 161.50 C 457.73 161.50 458.95 161.50 460.18 161.51 C 462.64 167.17 465.07 172.85 467.48 178.53 C 466.14 178.50 464.81 178.47 463.48 178.44 C 463.03 177.21 462.58 175.98 462.14 174.75 C 459.60 174.75 457.06 174.75 454.53 174.75 C 454.06 176.00 453.59 177.25 453.13 178.50 C 452.17 178.50 450.24 178.50 449.27 178.50 C 451.67 172.83 454.09 167.16 456.51 161.50 M 458.35 165.31 C 457.46 167.45 456.59 169.59 455.75 171.75 C 457.45 171.75 459.17 171.75 460.88 171.76 C 460.04 169.61 459.19 167.46 458.35 165.31 Z" />
<path fill="#e3e3e3" opacity="1.00" d=" M 475.75 161.50 C 480.50 161.50 485.25 161.50 490.00 161.50 C 490.00 162.32 490.00 163.94 490.00 164.75 C 488.24 164.75 486.49 164.75 484.75 164.75 C 484.75 169.33 484.75 173.91 484.75 178.50 C 483.49 178.50 482.24 178.50 481.00 178.50 C 481.00 173.91 481.00 169.33 481.00 164.75 C 479.25 164.75 477.49 164.75 475.75 164.75 C 475.75 163.94 475.75 162.31 475.75 161.50 Z" />
<path fill="#e3e3e3" opacity="1.00" d=" M 505.78 161.50 C 506.69 161.50 508.52 161.51 509.43 161.51 C 511.90 167.16 514.29 172.84 516.74 178.50 C 515.75 178.50 513.78 178.50 512.79 178.49 C 512.30 177.24 511.82 175.99 511.34 174.74 C 508.82 174.75 506.29 174.75 503.77 174.75 C 503.30 176.00 502.84 177.25 502.38 178.50 C 501.42 178.50 499.50 178.50 498.53 178.50 C 500.93 172.82 503.33 167.15 505.78 161.50 M 507.56 165.30 C 506.71 167.45 505.86 169.59 505.01 171.73 C 506.71 171.75 508.42 171.76 510.14 171.78 C 509.30 169.61 508.43 167.45 507.56 165.30 Z" />
<path fill="#e3e3e3" opacity="1.00" d=" M 527.75 161.51 C 532.08 161.84 537.80 160.15 540.80 164.29 C 542.88 167.33 541.33 171.21 538.67 173.30 C 539.80 175.03 540.92 176.75 542.07 178.48 C 541.07 178.49 539.07 178.50 538.07 178.50 C 537.04 176.92 536.02 175.34 535.01 173.75 C 534.13 173.75 532.38 173.75 531.50 173.75 C 531.49 175.33 531.49 176.91 531.50 178.50 C 530.24 178.50 528.99 178.49 527.75 178.50 C 527.75 172.83 527.75 167.17 527.75 161.51 M 531.50 164.67 C 531.49 166.64 531.49 168.61 531.51 170.58 C 533.73 170.41 537.78 171.18 537.99 167.95 C 538.45 164.29 533.88 164.64 531.50 164.67 Z" />
<path fill="#e3e3e3" opacity="1.00" d=" M 559.28 161.49 C 560.49 161.49 561.71 161.50 562.94 161.51 C 565.38 167.17 567.79 172.84 570.24 178.50 C 568.92 178.50 567.60 178.49 566.29 178.48 C 565.81 177.23 565.32 175.98 564.85 174.73 C 562.32 174.75 559.79 174.75 557.27 174.75 C 556.80 176.00 556.33 177.26 555.88 178.51 C 554.91 178.51 552.99 178.50 552.03 178.49 C 554.44 172.82 556.82 167.14 559.28 161.49 M 558.37 171.75 C 560.12 171.88 561.87 171.77 563.64 171.77 C 562.80 169.62 561.96 167.49 561.10 165.36 C 560.22 167.50 559.28 169.62 558.37 171.75 Z" />
</g>
</svg>
